M48
;DRILL file {Pcbnew (2013-07-07 BZR 4022)-stable} date 11/10/2018 5:54:17 PM
;FORMAT={3:3/ absolute / metric / suppress leading zeros}
FMAT,2
METRIC,TZ
T1C0.635
T2C0.813
T3C0.920
T4C1.016
T5C1.753
T6C2.220
T7C2.642
%
G90
G05
M71
T1
X143065Y-106363
X146558Y-113538
X151384Y-115189
X151384Y-117221
X152273Y-124460
X161671Y-122555
T2
X116586Y-69850
X123952Y-110236
X126746Y-90424
X126746Y-92964
X126746Y-95504
X126746Y-98044
X126746Y-100584
X126746Y-103124
X127508Y-68580
X127508Y-71120
X132842Y-114046
X135382Y-102870
X135382Y-114046
X137922Y-114046
X140462Y-67310
X140462Y-69850
X140462Y-72390
X140462Y-74930
X140462Y-77470
X140462Y-80010
X140462Y-82550
X140462Y-85090
X140462Y-87630
X140462Y-90170
X140462Y-92710
X140462Y-95250
X140462Y-97790
X140462Y-100330
X140462Y-102870
X140462Y-105410
X140462Y-114046
X143002Y-114046
X155702Y-67310
X155702Y-69850
X155702Y-72390
X155702Y-74930
X155702Y-77470
X155702Y-80010
X155702Y-82550
X155702Y-85090
X155702Y-87630
X155702Y-90170
X155702Y-92710
X155702Y-95250
X155702Y-97790
X155702Y-100330
X155702Y-102870
X155702Y-105410
X156972Y-62484
X158750Y-69850
X158750Y-72390
X163322Y-62738
X163322Y-65278
X164084Y-114554
X164084Y-117094
X164084Y-119634
X164084Y-122174
X164084Y-124714
X164084Y-127254
X164338Y-102870
T3
X133501Y-119810
X133501Y-122310
X135611Y-122310
X138201Y-122310
X140311Y-119810
X140311Y-122310
T4
X116586Y-72390
X116586Y-74930
X116586Y-77470
X116586Y-80010
X116586Y-82550
X116586Y-85090
X116586Y-87630
X116586Y-90170
X116586Y-92710
X116586Y-95250
X116586Y-97790
X116586Y-100330
X116586Y-102870
X119126Y-69850
X119126Y-72390
X119126Y-74930
X119126Y-77470
X119126Y-80010
X119126Y-82550
X119126Y-85090
X119126Y-87630
X119126Y-90170
X119126Y-92710
X119126Y-95250
X119126Y-97790
X119126Y-100330
X119126Y-102870
X123952Y-62484
X123952Y-65024
X123952Y-107696
X126492Y-62484
X126492Y-65024
X126492Y-107696
X126492Y-110236
X129032Y-62484
X129032Y-65024
X129032Y-107696
X129032Y-110236
X131572Y-62484
X131572Y-65024
X131572Y-107696
X131572Y-110236
X132842Y-69850
X132842Y-72390
X132842Y-74930
X132842Y-77470
X132842Y-80010
X132842Y-82550
X132842Y-85090
X132842Y-87630
X132842Y-90170
X132842Y-92710
X132842Y-95250
X132842Y-97790
X132842Y-100330
X132842Y-102870
X134112Y-62484
X134112Y-65024
X134112Y-107696
X134112Y-110236
X135382Y-69850
X135382Y-72390
X135382Y-74930
X135382Y-77470
X135382Y-80010
X135382Y-82550
X135382Y-85090
X135382Y-87630
X135382Y-90170
X135382Y-92710
X135382Y-95250
X135382Y-97790
X135382Y-100330
X136652Y-62484
X136652Y-65024
X136652Y-107696
X136652Y-110236
X139192Y-62484
X139192Y-65024
X139192Y-107696
X139319Y-110236
X141732Y-62484
X141732Y-65024
X141732Y-107696
X141732Y-110236
X144272Y-62484
X144272Y-65024
X144272Y-107696
X144272Y-110236
X146812Y-62484
X146812Y-65024
X146812Y-107696
X146812Y-110236
X149352Y-62484
X149352Y-65024
X149352Y-107696
X149352Y-110236
X151892Y-62484
X151892Y-65024
X151892Y-107696
X151892Y-110236
X154432Y-62484
X154432Y-65024
X154432Y-107696
X154432Y-110236
X156972Y-65024
X156972Y-107696
X156972Y-110236
X161798Y-69850
X161798Y-72390
X161798Y-74930
X161798Y-77470
X161798Y-80010
X161798Y-82550
X161798Y-85090
X161798Y-87630
X161798Y-90170
X161798Y-92710
X161798Y-95250
X161798Y-97790
X161798Y-100330
X161798Y-102870
X164338Y-69850
X164338Y-72390
X164338Y-74930
X164338Y-77470
X164338Y-80010
X164338Y-82550
X164338Y-85090
X164338Y-87630
X164338Y-90170
X164338Y-92710
X164338Y-95250
X164338Y-97790
X164338Y-100330
T5
X122555Y-122682
T6
X130156Y-125810
X136906Y-126110
X143656Y-125810
T7
X117551Y-122682
X122555Y-127178
X127559Y-122682
T0
M30
