G04 (created by PCBNEW (2013-07-07 BZR 4022)-stable) date 11/10/2018 5:54:12 PM*
%MOIN*%
G04 Gerber Fmt 3.4, Leading zero omitted, Abs format*
%FSLAX34Y34*%
G01*
G70*
G90*
G04 APERTURE LIST*
%ADD10C,0.00590551*%
%ADD11C,0.0075*%
%ADD12C,0.01*%
%ADD13C,0.015*%
%ADD14C,0.012*%
G04 APERTURE END LIST*
G54D10*
G54D11*
X56121Y-45521D02*
X56121Y-45692D01*
X56421Y-45607D02*
X56121Y-45607D01*
X56121Y-45764D02*
X56421Y-45964D01*
X56121Y-45964D02*
X56421Y-45764D01*
X56421Y-46078D02*
X56121Y-46078D01*
X56121Y-46150D01*
X56135Y-46192D01*
X56164Y-46221D01*
X56192Y-46235D01*
X56250Y-46250D01*
X56292Y-46250D01*
X56350Y-46235D01*
X56378Y-46221D01*
X56407Y-46192D01*
X56421Y-46150D01*
X56421Y-46078D01*
X55471Y-45700D02*
X55328Y-45600D01*
X55471Y-45528D02*
X55171Y-45528D01*
X55171Y-45642D01*
X55185Y-45671D01*
X55200Y-45685D01*
X55228Y-45700D01*
X55271Y-45700D01*
X55300Y-45685D01*
X55314Y-45671D01*
X55328Y-45642D01*
X55328Y-45528D01*
X55171Y-45800D02*
X55471Y-46000D01*
X55171Y-46000D02*
X55471Y-45800D01*
X55471Y-46114D02*
X55171Y-46114D01*
X55171Y-46185D01*
X55185Y-46228D01*
X55214Y-46257D01*
X55242Y-46271D01*
X55300Y-46285D01*
X55342Y-46285D01*
X55400Y-46271D01*
X55428Y-46257D01*
X55457Y-46228D01*
X55471Y-46185D01*
X55471Y-46114D01*
X54421Y-45735D02*
X54278Y-45635D01*
X54421Y-45564D02*
X54121Y-45564D01*
X54121Y-45678D01*
X54135Y-45707D01*
X54150Y-45721D01*
X54178Y-45735D01*
X54221Y-45735D01*
X54250Y-45721D01*
X54264Y-45707D01*
X54278Y-45678D01*
X54278Y-45564D01*
X54121Y-45821D02*
X54121Y-45992D01*
X54421Y-45907D02*
X54121Y-45907D01*
X54407Y-46078D02*
X54421Y-46121D01*
X54421Y-46192D01*
X54407Y-46221D01*
X54392Y-46235D01*
X54364Y-46250D01*
X54335Y-46250D01*
X54307Y-46235D01*
X54292Y-46221D01*
X54278Y-46192D01*
X54264Y-46135D01*
X54250Y-46107D01*
X54235Y-46092D01*
X54207Y-46078D01*
X54178Y-46078D01*
X54150Y-46092D01*
X54135Y-46107D01*
X54121Y-46135D01*
X54121Y-46207D01*
X54135Y-46250D01*
X53171Y-45457D02*
X53171Y-45642D01*
X53285Y-45542D01*
X53285Y-45585D01*
X53300Y-45614D01*
X53314Y-45628D01*
X53342Y-45642D01*
X53414Y-45642D01*
X53442Y-45628D01*
X53457Y-45614D01*
X53471Y-45585D01*
X53471Y-45500D01*
X53457Y-45471D01*
X53442Y-45457D01*
X53442Y-45771D02*
X53457Y-45785D01*
X53471Y-45771D01*
X53457Y-45757D01*
X53442Y-45771D01*
X53471Y-45771D01*
X53171Y-45885D02*
X53171Y-46071D01*
X53285Y-45971D01*
X53285Y-46014D01*
X53300Y-46042D01*
X53314Y-46057D01*
X53342Y-46071D01*
X53414Y-46071D01*
X53442Y-46057D01*
X53457Y-46042D01*
X53471Y-46014D01*
X53471Y-45928D01*
X53457Y-45900D01*
X53442Y-45885D01*
X53171Y-46157D02*
X53471Y-46257D01*
X53171Y-46357D01*
X52085Y-45721D02*
X52071Y-45692D01*
X52071Y-45650D01*
X52085Y-45607D01*
X52114Y-45578D01*
X52142Y-45564D01*
X52200Y-45550D01*
X52242Y-45550D01*
X52300Y-45564D01*
X52328Y-45578D01*
X52357Y-45607D01*
X52371Y-45650D01*
X52371Y-45678D01*
X52357Y-45721D01*
X52342Y-45735D01*
X52242Y-45735D01*
X52242Y-45678D01*
X52371Y-45864D02*
X52071Y-45864D01*
X52371Y-46035D01*
X52071Y-46035D01*
X52371Y-46178D02*
X52071Y-46178D01*
X52071Y-46250D01*
X52085Y-46292D01*
X52114Y-46321D01*
X52142Y-46335D01*
X52200Y-46350D01*
X52242Y-46350D01*
X52300Y-46335D01*
X52328Y-46321D01*
X52357Y-46292D01*
X52371Y-46250D01*
X52371Y-46178D01*
X63764Y-45242D02*
X63778Y-45257D01*
X63821Y-45271D01*
X63849Y-45271D01*
X63892Y-45257D01*
X63921Y-45228D01*
X63935Y-45200D01*
X63949Y-45142D01*
X63949Y-45100D01*
X63935Y-45042D01*
X63921Y-45014D01*
X63892Y-44985D01*
X63849Y-44971D01*
X63821Y-44971D01*
X63778Y-44985D01*
X63764Y-45000D01*
X63678Y-44971D02*
X63507Y-44971D01*
X63592Y-45271D02*
X63592Y-44971D01*
X63421Y-45257D02*
X63378Y-45271D01*
X63307Y-45271D01*
X63278Y-45257D01*
X63264Y-45242D01*
X63250Y-45214D01*
X63250Y-45185D01*
X63264Y-45157D01*
X63278Y-45142D01*
X63307Y-45128D01*
X63364Y-45114D01*
X63392Y-45100D01*
X63407Y-45085D01*
X63421Y-45057D01*
X63421Y-45028D01*
X63407Y-45000D01*
X63392Y-44985D01*
X63364Y-44971D01*
X63292Y-44971D01*
X63250Y-44985D01*
X63928Y-45921D02*
X63757Y-45921D01*
X63842Y-46221D02*
X63842Y-45921D01*
X63685Y-45921D02*
X63485Y-46221D01*
X63485Y-45921D02*
X63685Y-46221D01*
X63371Y-46221D02*
X63371Y-45921D01*
X63300Y-45921D01*
X63257Y-45935D01*
X63228Y-45964D01*
X63214Y-45992D01*
X63200Y-46050D01*
X63200Y-46092D01*
X63214Y-46150D01*
X63228Y-46178D01*
X63257Y-46207D01*
X63300Y-46221D01*
X63371Y-46221D01*
X63750Y-47271D02*
X63850Y-47128D01*
X63921Y-47271D02*
X63921Y-46971D01*
X63807Y-46971D01*
X63778Y-46985D01*
X63764Y-47000D01*
X63750Y-47028D01*
X63750Y-47071D01*
X63764Y-47100D01*
X63778Y-47114D01*
X63807Y-47128D01*
X63921Y-47128D01*
X63650Y-46971D02*
X63450Y-47271D01*
X63450Y-46971D02*
X63650Y-47271D01*
X63335Y-47271D02*
X63335Y-46971D01*
X63264Y-46971D01*
X63221Y-46985D01*
X63192Y-47014D01*
X63178Y-47042D01*
X63164Y-47100D01*
X63164Y-47142D01*
X63178Y-47200D01*
X63192Y-47228D01*
X63221Y-47257D01*
X63264Y-47271D01*
X63335Y-47271D01*
X63764Y-48171D02*
X63864Y-48028D01*
X63935Y-48171D02*
X63935Y-47871D01*
X63821Y-47871D01*
X63792Y-47885D01*
X63778Y-47900D01*
X63764Y-47928D01*
X63764Y-47971D01*
X63778Y-48000D01*
X63792Y-48014D01*
X63821Y-48028D01*
X63935Y-48028D01*
X63678Y-47871D02*
X63507Y-47871D01*
X63592Y-48171D02*
X63592Y-47871D01*
X63421Y-48157D02*
X63378Y-48171D01*
X63307Y-48171D01*
X63278Y-48157D01*
X63264Y-48142D01*
X63250Y-48114D01*
X63250Y-48085D01*
X63264Y-48057D01*
X63278Y-48042D01*
X63307Y-48028D01*
X63364Y-48014D01*
X63392Y-48000D01*
X63407Y-47985D01*
X63421Y-47957D01*
X63421Y-47928D01*
X63407Y-47900D01*
X63392Y-47885D01*
X63364Y-47871D01*
X63292Y-47871D01*
X63250Y-47885D01*
X64042Y-48971D02*
X63857Y-48971D01*
X63957Y-49085D01*
X63914Y-49085D01*
X63885Y-49100D01*
X63871Y-49114D01*
X63857Y-49142D01*
X63857Y-49214D01*
X63871Y-49242D01*
X63885Y-49257D01*
X63914Y-49271D01*
X64000Y-49271D01*
X64028Y-49257D01*
X64042Y-49242D01*
X63728Y-49242D02*
X63714Y-49257D01*
X63728Y-49271D01*
X63742Y-49257D01*
X63728Y-49242D01*
X63728Y-49271D01*
X63614Y-48971D02*
X63428Y-48971D01*
X63528Y-49085D01*
X63485Y-49085D01*
X63457Y-49100D01*
X63442Y-49114D01*
X63428Y-49142D01*
X63428Y-49214D01*
X63442Y-49242D01*
X63457Y-49257D01*
X63485Y-49271D01*
X63571Y-49271D01*
X63600Y-49257D01*
X63614Y-49242D01*
X63342Y-48971D02*
X63242Y-49271D01*
X63142Y-48971D01*
X63778Y-49985D02*
X63807Y-49971D01*
X63850Y-49971D01*
X63892Y-49985D01*
X63921Y-50014D01*
X63935Y-50042D01*
X63950Y-50100D01*
X63950Y-50142D01*
X63935Y-50200D01*
X63921Y-50228D01*
X63892Y-50257D01*
X63850Y-50271D01*
X63821Y-50271D01*
X63778Y-50257D01*
X63764Y-50242D01*
X63764Y-50142D01*
X63821Y-50142D01*
X63635Y-50271D02*
X63635Y-49971D01*
X63464Y-50271D01*
X63464Y-49971D01*
X63321Y-50271D02*
X63321Y-49971D01*
X63250Y-49971D01*
X63207Y-49985D01*
X63178Y-50014D01*
X63164Y-50042D01*
X63150Y-50100D01*
X63150Y-50142D01*
X63164Y-50200D01*
X63178Y-50228D01*
X63207Y-50257D01*
X63250Y-50271D01*
X63321Y-50271D01*
G54D12*
X63399Y-51052D02*
X63533Y-51052D01*
X63533Y-51261D02*
X63533Y-50861D01*
X63342Y-50861D01*
X63190Y-51261D02*
X63190Y-50861D01*
X63038Y-50861D01*
X62999Y-50880D01*
X62980Y-50900D01*
X62961Y-50938D01*
X62961Y-50995D01*
X62980Y-51033D01*
X62999Y-51052D01*
X63038Y-51071D01*
X63190Y-51071D01*
X62580Y-50880D02*
X62619Y-50861D01*
X62676Y-50861D01*
X62733Y-50880D01*
X62771Y-50919D01*
X62790Y-50957D01*
X62809Y-51033D01*
X62809Y-51090D01*
X62790Y-51166D01*
X62771Y-51204D01*
X62733Y-51242D01*
X62676Y-51261D01*
X62638Y-51261D01*
X62580Y-51242D01*
X62561Y-51223D01*
X62561Y-51090D01*
X62638Y-51090D01*
X62409Y-51147D02*
X62219Y-51147D01*
X62447Y-51261D02*
X62314Y-50861D01*
X62180Y-51261D01*
X61514Y-51261D02*
X61647Y-51071D01*
X61742Y-51261D02*
X61742Y-50861D01*
X61590Y-50861D01*
X61552Y-50880D01*
X61533Y-50900D01*
X61514Y-50938D01*
X61514Y-50995D01*
X61533Y-51033D01*
X61552Y-51052D01*
X61590Y-51071D01*
X61742Y-51071D01*
X61342Y-51052D02*
X61209Y-51052D01*
X61152Y-51261D02*
X61342Y-51261D01*
X61342Y-50861D01*
X61152Y-50861D01*
X61038Y-50861D02*
X60809Y-50861D01*
X60923Y-51261D02*
X60923Y-50861D01*
X60447Y-51261D02*
X60580Y-51071D01*
X60676Y-51261D02*
X60676Y-50861D01*
X60523Y-50861D01*
X60485Y-50880D01*
X60466Y-50900D01*
X60447Y-50938D01*
X60447Y-50995D01*
X60466Y-51033D01*
X60485Y-51052D01*
X60523Y-51071D01*
X60676Y-51071D01*
X60199Y-50861D02*
X60123Y-50861D01*
X60085Y-50880D01*
X60047Y-50919D01*
X60028Y-50995D01*
X60028Y-51128D01*
X60047Y-51204D01*
X60085Y-51242D01*
X60123Y-51261D01*
X60199Y-51261D01*
X60238Y-51242D01*
X60276Y-51204D01*
X60295Y-51128D01*
X60295Y-50995D01*
X60276Y-50919D01*
X60238Y-50880D01*
X60199Y-50861D01*
X59857Y-51109D02*
X59552Y-51109D01*
X59133Y-51223D02*
X59152Y-51242D01*
X59209Y-51261D01*
X59247Y-51261D01*
X59304Y-51242D01*
X59342Y-51204D01*
X59361Y-51166D01*
X59380Y-51090D01*
X59380Y-51033D01*
X59361Y-50957D01*
X59342Y-50919D01*
X59304Y-50880D01*
X59247Y-50861D01*
X59209Y-50861D01*
X59152Y-50880D01*
X59133Y-50900D01*
X58885Y-50861D02*
X58809Y-50861D01*
X58771Y-50880D01*
X58733Y-50919D01*
X58714Y-50995D01*
X58714Y-51128D01*
X58733Y-51204D01*
X58771Y-51242D01*
X58809Y-51261D01*
X58885Y-51261D01*
X58923Y-51242D01*
X58961Y-51204D01*
X58980Y-51128D01*
X58980Y-50995D01*
X58961Y-50919D01*
X58923Y-50880D01*
X58885Y-50861D01*
X58542Y-51261D02*
X58542Y-50861D01*
X58409Y-51147D01*
X58276Y-50861D01*
X58276Y-51261D01*
X58085Y-51261D02*
X58085Y-50861D01*
X57933Y-50861D01*
X57895Y-50880D01*
X57876Y-50900D01*
X57857Y-50938D01*
X57857Y-50995D01*
X57876Y-51033D01*
X57895Y-51052D01*
X57933Y-51071D01*
X58085Y-51071D01*
X57685Y-50861D02*
X57685Y-51185D01*
X57666Y-51223D01*
X57647Y-51242D01*
X57609Y-51261D01*
X57533Y-51261D01*
X57495Y-51242D01*
X57476Y-51223D01*
X57457Y-51185D01*
X57457Y-50861D01*
X57323Y-50861D02*
X57095Y-50861D01*
X57209Y-51261D02*
X57209Y-50861D01*
X56961Y-51052D02*
X56828Y-51052D01*
X56771Y-51261D02*
X56961Y-51261D01*
X56961Y-50861D01*
X56771Y-50861D01*
X56371Y-51261D02*
X56504Y-51071D01*
X56599Y-51261D02*
X56599Y-50861D01*
X56447Y-50861D01*
X56409Y-50880D01*
X56390Y-50900D01*
X56371Y-50938D01*
X56371Y-50995D01*
X56390Y-51033D01*
X56409Y-51052D01*
X56447Y-51071D01*
X56599Y-51071D01*
X55895Y-51261D02*
X55895Y-50861D01*
X55704Y-51261D02*
X55704Y-50861D01*
X55476Y-51261D01*
X55476Y-50861D01*
X55342Y-50861D02*
X55114Y-50861D01*
X55228Y-51261D02*
X55228Y-50861D01*
X54980Y-51052D02*
X54847Y-51052D01*
X54790Y-51261D02*
X54980Y-51261D01*
X54980Y-50861D01*
X54790Y-50861D01*
X54390Y-51261D02*
X54523Y-51071D01*
X54619Y-51261D02*
X54619Y-50861D01*
X54466Y-50861D01*
X54428Y-50880D01*
X54409Y-50900D01*
X54390Y-50938D01*
X54390Y-50995D01*
X54409Y-51033D01*
X54428Y-51052D01*
X54466Y-51071D01*
X54619Y-51071D01*
X54085Y-51052D02*
X54219Y-51052D01*
X54219Y-51261D02*
X54219Y-50861D01*
X54028Y-50861D01*
X53895Y-51147D02*
X53704Y-51147D01*
X53933Y-51261D02*
X53799Y-50861D01*
X53666Y-51261D01*
X53304Y-51223D02*
X53323Y-51242D01*
X53380Y-51261D01*
X53419Y-51261D01*
X53476Y-51242D01*
X53514Y-51204D01*
X53533Y-51166D01*
X53552Y-51090D01*
X53552Y-51033D01*
X53533Y-50957D01*
X53514Y-50919D01*
X53476Y-50880D01*
X53419Y-50861D01*
X53380Y-50861D01*
X53323Y-50880D01*
X53304Y-50900D01*
X53133Y-51052D02*
X52999Y-51052D01*
X52942Y-51261D02*
X53133Y-51261D01*
X53133Y-50861D01*
X52942Y-50861D01*
X52352Y-51414D02*
X52371Y-51395D01*
X52409Y-51338D01*
X52428Y-51300D01*
X52447Y-51242D01*
X52466Y-51147D01*
X52466Y-51071D01*
X52447Y-50976D01*
X52428Y-50919D01*
X52409Y-50880D01*
X52371Y-50823D01*
X52352Y-50804D01*
X52028Y-51242D02*
X52066Y-51261D01*
X52142Y-51261D01*
X52180Y-51242D01*
X52199Y-51223D01*
X52219Y-51185D01*
X52219Y-51071D01*
X52199Y-51033D01*
X52180Y-51014D01*
X52142Y-50995D01*
X52066Y-50995D01*
X52028Y-51014D01*
X51895Y-51414D02*
X51876Y-51395D01*
X51838Y-51338D01*
X51819Y-51300D01*
X51799Y-51242D01*
X51780Y-51147D01*
X51780Y-51071D01*
X51799Y-50976D01*
X51819Y-50919D01*
X51838Y-50880D01*
X51876Y-50823D01*
X51895Y-50804D01*
X51609Y-50900D02*
X51590Y-50880D01*
X51552Y-50861D01*
X51457Y-50861D01*
X51419Y-50880D01*
X51400Y-50900D01*
X51380Y-50938D01*
X51380Y-50976D01*
X51400Y-51033D01*
X51628Y-51261D01*
X51380Y-51261D01*
X51133Y-50861D02*
X51095Y-50861D01*
X51057Y-50880D01*
X51038Y-50900D01*
X51019Y-50938D01*
X51000Y-51014D01*
X51000Y-51109D01*
X51019Y-51185D01*
X51038Y-51223D01*
X51057Y-51242D01*
X51095Y-51261D01*
X51133Y-51261D01*
X51171Y-51242D01*
X51190Y-51223D01*
X51209Y-51185D01*
X51228Y-51109D01*
X51228Y-51014D01*
X51209Y-50938D01*
X51190Y-50900D01*
X51171Y-50880D01*
X51133Y-50861D01*
X50619Y-51261D02*
X50847Y-51261D01*
X50733Y-51261D02*
X50733Y-50861D01*
X50771Y-50919D01*
X50809Y-50957D01*
X50847Y-50976D01*
X50257Y-50861D02*
X50447Y-50861D01*
X50466Y-51052D01*
X50447Y-51033D01*
X50409Y-51014D01*
X50314Y-51014D01*
X50276Y-51033D01*
X50257Y-51052D01*
X50238Y-51090D01*
X50238Y-51185D01*
X50257Y-51223D01*
X50276Y-51242D01*
X50314Y-51261D01*
X50409Y-51261D01*
X50447Y-51242D01*
X50466Y-51223D01*
X49647Y-50861D02*
X49647Y-51147D01*
X49666Y-51204D01*
X49704Y-51242D01*
X49761Y-51261D01*
X49800Y-51261D01*
X49285Y-51261D02*
X49285Y-51052D01*
X49304Y-51014D01*
X49342Y-50995D01*
X49419Y-50995D01*
X49457Y-51014D01*
X49285Y-51242D02*
X49323Y-51261D01*
X49419Y-51261D01*
X49457Y-51242D01*
X49476Y-51204D01*
X49476Y-51166D01*
X49457Y-51128D01*
X49419Y-51109D01*
X49323Y-51109D01*
X49285Y-51090D01*
X49095Y-51261D02*
X49095Y-50995D01*
X49095Y-51033D02*
X49076Y-51014D01*
X49038Y-50995D01*
X48980Y-50995D01*
X48942Y-51014D01*
X48923Y-51052D01*
X48923Y-51261D01*
X48923Y-51052D02*
X48904Y-51014D01*
X48866Y-50995D01*
X48809Y-50995D01*
X48771Y-51014D01*
X48752Y-51052D01*
X48752Y-51261D01*
X48409Y-51242D02*
X48447Y-51261D01*
X48523Y-51261D01*
X48561Y-51242D01*
X48580Y-51204D01*
X48580Y-51052D01*
X48561Y-51014D01*
X48523Y-50995D01*
X48447Y-50995D01*
X48409Y-51014D01*
X48390Y-51052D01*
X48390Y-51090D01*
X48580Y-51128D01*
X48238Y-51242D02*
X48200Y-51261D01*
X48123Y-51261D01*
X48085Y-51242D01*
X48066Y-51204D01*
X48066Y-51185D01*
X48085Y-51147D01*
X48123Y-51128D01*
X48180Y-51128D01*
X48219Y-51109D01*
X48238Y-51071D01*
X48238Y-51052D01*
X48219Y-51014D01*
X48180Y-50995D01*
X48123Y-50995D01*
X48085Y-51014D01*
X47609Y-51242D02*
X47552Y-51261D01*
X47457Y-51261D01*
X47419Y-51242D01*
X47400Y-51223D01*
X47380Y-51185D01*
X47380Y-51147D01*
X47400Y-51109D01*
X47419Y-51090D01*
X47457Y-51071D01*
X47533Y-51052D01*
X47571Y-51033D01*
X47590Y-51014D01*
X47609Y-50976D01*
X47609Y-50938D01*
X47590Y-50900D01*
X47571Y-50880D01*
X47533Y-50861D01*
X47438Y-50861D01*
X47380Y-50880D01*
X47247Y-50995D02*
X47171Y-51261D01*
X47095Y-51071D01*
X47019Y-51261D01*
X46942Y-50995D01*
X46638Y-51242D02*
X46676Y-51261D01*
X46752Y-51261D01*
X46790Y-51242D01*
X46809Y-51204D01*
X46809Y-51052D01*
X46790Y-51014D01*
X46752Y-50995D01*
X46676Y-50995D01*
X46638Y-51014D01*
X46619Y-51052D01*
X46619Y-51090D01*
X46809Y-51128D01*
X46295Y-51242D02*
X46333Y-51261D01*
X46409Y-51261D01*
X46447Y-51242D01*
X46466Y-51204D01*
X46466Y-51052D01*
X46447Y-51014D01*
X46409Y-50995D01*
X46333Y-50995D01*
X46295Y-51014D01*
X46276Y-51052D01*
X46276Y-51090D01*
X46466Y-51128D01*
X46161Y-50995D02*
X46009Y-50995D01*
X46104Y-50861D02*
X46104Y-51204D01*
X46085Y-51242D01*
X46047Y-51261D01*
X46009Y-51261D01*
G54D11*
X49178Y-35564D02*
X49135Y-35578D01*
X49121Y-35592D01*
X49107Y-35621D01*
X49107Y-35664D01*
X49121Y-35692D01*
X49135Y-35707D01*
X49164Y-35721D01*
X49278Y-35721D01*
X49278Y-35421D01*
X49178Y-35421D01*
X49150Y-35435D01*
X49135Y-35450D01*
X49121Y-35478D01*
X49121Y-35507D01*
X49135Y-35535D01*
X49150Y-35550D01*
X49178Y-35564D01*
X49278Y-35564D01*
X49121Y-36435D02*
X49150Y-36421D01*
X49192Y-36421D01*
X49235Y-36435D01*
X49264Y-36464D01*
X49278Y-36492D01*
X49292Y-36550D01*
X49292Y-36592D01*
X49278Y-36650D01*
X49264Y-36678D01*
X49235Y-36707D01*
X49192Y-36721D01*
X49164Y-36721D01*
X49121Y-36707D01*
X49107Y-36692D01*
X49107Y-36592D01*
X49164Y-36592D01*
X49107Y-37771D02*
X49207Y-37628D01*
X49278Y-37771D02*
X49278Y-37471D01*
X49164Y-37471D01*
X49135Y-37485D01*
X49121Y-37500D01*
X49107Y-37528D01*
X49107Y-37571D01*
X49121Y-37600D01*
X49135Y-37614D01*
X49164Y-37628D01*
X49278Y-37628D01*
X49285Y-38771D02*
X49285Y-38471D01*
X49285Y-38614D02*
X49114Y-38614D01*
X49114Y-38771D02*
X49114Y-38471D01*
X49300Y-39471D02*
X49200Y-39771D01*
X49100Y-39471D01*
X49228Y-40435D02*
X49257Y-40421D01*
X49300Y-40421D01*
X49342Y-40435D01*
X49371Y-40464D01*
X49385Y-40492D01*
X49400Y-40550D01*
X49400Y-40592D01*
X49385Y-40650D01*
X49371Y-40678D01*
X49342Y-40707D01*
X49300Y-40721D01*
X49271Y-40721D01*
X49228Y-40707D01*
X49214Y-40692D01*
X49214Y-40592D01*
X49271Y-40592D01*
X49085Y-40721D02*
X49085Y-40421D01*
X48914Y-40721D01*
X48914Y-40421D01*
X48771Y-40721D02*
X48771Y-40421D01*
X48700Y-40421D01*
X48657Y-40435D01*
X48628Y-40464D01*
X48614Y-40492D01*
X48600Y-40550D01*
X48600Y-40592D01*
X48614Y-40650D01*
X48628Y-40678D01*
X48657Y-40707D01*
X48700Y-40721D01*
X48771Y-40721D01*
G54D13*
X45100Y-51500D02*
X45100Y-23400D01*
X65500Y-51500D02*
X45100Y-51500D01*
X65500Y-23400D02*
X65500Y-51500D01*
X45100Y-23400D02*
X65500Y-23400D01*
G54D14*
X47500Y-27000D02*
X45300Y-27000D01*
X47500Y-41000D02*
X45300Y-41000D01*
X47500Y-41000D02*
X47500Y-27000D01*
X45300Y-41000D02*
X45300Y-27000D01*
X65300Y-27000D02*
X65300Y-41000D01*
X63100Y-27000D02*
X63100Y-41000D01*
X63100Y-27000D02*
X65300Y-27000D01*
X63100Y-41000D02*
X65300Y-41000D01*
X62300Y-26200D02*
X62300Y-24000D01*
X48300Y-26200D02*
X48300Y-24000D01*
X48300Y-26200D02*
X62300Y-26200D01*
X48300Y-24000D02*
X62300Y-24000D01*
X62300Y-44000D02*
X48300Y-44000D01*
X62300Y-41800D02*
X48300Y-41800D01*
X62300Y-41800D02*
X62300Y-44000D01*
X48300Y-41800D02*
X48300Y-44000D01*
M02*
